<svg id="Capa_1" enable-background="new 0 0 512 512" height="512" viewBox="0 0 512 512" width="512" xmlns="http://www.w3.org/2000/svg"><g><g><path d="m461.795 408.42-149.919 93.58c12.977-12.163 25.567-32.869 25.567-68.69 0-73.364 0-115.381 0-115.381l36.979-22.876v-71.945l-91.702 60.658v119.919l-26.715 32.452-26.725-32.452v-119.919l-91.702-60.658v71.945l36.979 22.876v115.381c0 35.8 12.58 56.506 25.546 68.68l-149.898-93.57s35.477-54.18 35.477-118.041c0 0-3.807-173.515 129.881-202.858l9.931 32.953v23.064c0 16.632 13.879 30.512 30.512 30.512 16.847 0 30.512-13.665 30.512-30.512v-23.064l9.92-32.953c133.688 29.322 129.891 202.858 129.891 202.858-.001 63.861 35.466 118.041 35.466 118.041z" fill="#e0e7ef"/></g><g><path d="m225.492 143.539v-23.068h61.02v23.068c0 16.85-13.66 30.51-30.51 30.51-16.574-.037-30.51-13.918-30.51-30.51z" fill="#9ebccf"/></g><g><path d="m256.002 10c-30.18 0-61.229 8.496-61.229 8.496l30.719 101.975h61.02l30.719-101.975s-34.366-8.496-61.229-8.496z" fill="#ff5c7f"/></g><g><path d="m470.162 402.943c-.339-.517-33.797-52.325-33.834-112.466.058-3.125.542-46.33-15.33-93.708-20.477-61.122-59.066-101.137-111.971-116.367l17.78-59.022c.79-2.623.47-5.455-.887-7.835-1.356-2.38-3.629-4.1-6.288-4.757-1.452-.358-35.869-8.788-63.63-8.788-31.165 0-62.547 8.489-63.868 8.851-2.601.712-4.804 2.443-6.11 4.803-1.306 2.359-1.604 5.146-.826 7.727l17.779 59.02c-15.732 4.523-30.277 11.231-43.352 20.015-4.584 3.08-5.804 9.293-2.724 13.877 3.081 4.584 9.293 5.803 13.877 2.724 11.404-7.662 24.141-13.52 37.964-17.469l5.422 17.992 1.327 4.405v21.594c0 22.022 18.504 40.511 40.513 40.511 22.338 0 40.511-18.173 40.511-40.512v-21.591l6.745-22.404c46.854 13.326 80 47.957 98.601 103.072 15.153 44.9 14.477 87.133 14.468 87.547-.001.073-.002.146-.002.219 0 26.13 5.566 50.536 12.387 70.651l-81.272 46.995v-84.523l32.24-19.944c2.946-1.823 4.739-5.04 4.739-8.504v-71.945c0-3.682-2.022-7.065-5.266-8.808-3.244-1.744-7.183-1.563-10.251.468l-91.702 60.658c-2.8 1.852-4.483 4.984-4.483 8.34v116.333l-16.716 20.306-16.724-20.307v-116.335c0-3.356-1.684-6.489-4.483-8.34l-91.702-60.658c-3.071-2.032-7.01-2.211-10.251-.468-3.243 1.743-5.266 5.126-5.266 8.808v71.945c0 3.464 1.793 6.682 4.739 8.504l32.24 19.944v84.52l-81.265-46.991c6.823-20.115 12.39-44.522 12.39-70.652 0-.068-.001-.144-.002-.212-.011-.546-.855-55.263 21.824-106.526 2.234-5.051-.048-10.957-5.099-13.191-5.051-2.235-10.957.048-13.191 5.099-24.223 54.756-23.602 111.178-23.531 114.931-.037 59.927-33.51 111.953-33.843 112.463-1.473 2.25-1.978 5-1.4 7.626.578 2.627 2.189 4.91 4.471 6.334l149.898 93.569c4.363 2.723 10.083 1.693 13.22-2.384 3.137-4.076 2.67-9.868-1.08-13.389-14.857-13.95-22.391-34.605-22.391-61.39v-115.379c0-3.464-1.793-6.682-4.739-8.504l-32.24-19.944v-47.768l71.702 47.428v114.544c0 2.319.806 4.566 2.281 6.357l26.725 32.452c1.9 2.307 4.732 3.644 7.72 3.643 2.989 0 5.82-1.337 7.719-3.645l26.715-32.452c1.474-1.79 2.279-4.037 2.279-6.355v-114.544l71.702-47.428v47.768l-32.24 19.944c-2.946 1.823-4.739 5.04-4.739 8.504v115.381c0 26.803-7.538 47.459-22.405 61.395-3.754 3.519-4.226 9.313-1.088 13.392 1.957 2.546 4.921 3.905 7.934 3.905 1.814 0 3.647-.493 5.288-1.518l149.919-93.58c2.282-1.424 3.894-3.707 4.472-6.334s.073-5.376-1.4-7.627zm-216.521-239.041c-10.196-1.176-18.147-10.093-18.147-20.364v-13.067h41.019v13.068c0 11.31-9.201 20.51-20.511 20.51-.792 0-1.575-.058-2.361-.147zm2.361-143.902c16.625 0 36.664 3.508 48.544 5.937l-25.465 84.534h-46.157l-25.514-84.696c11.183-2.403 30.155-5.775 48.592-5.775zm-192.206 385.116c3.285-5.883 7.737-14.495 12.271-25.16l88.49 51.168c0 13.608 1.256 27.174 5.333 40.217zm278.316 66.222c4.075-13.041 5.33-26.605 5.33-40.211l88.496-51.171c4.533 10.665 8.983 19.276 12.267 25.159z"/><path d="m123.48 142.68c1.634 3.922 5.713 6.467 9.964 6.138 4.185-.324 7.756-3.271 8.898-7.303 2.412-8.512-7.219-15.749-14.77-11.235-4.214 2.518-5.946 7.876-4.092 12.4z"/></g></g></svg>